<svg width="128" height="256" viewBox="0 0 128 256" xmlns="http://www.w3.org/2000/svg">
  <!-- Body Shadow -->
  <rect x="14" y="10" width="100" height="236" rx="20" fill="rgba(0,0,0,0.3)"/>

  <!-- Tires -->
  <rect x="0" y="40" width="14" height="40" rx="4" fill="#000"/> <!-- FL -->
  <rect x="114" y="40" width="14" height="40" rx="4" fill="#000"/> <!-- FR -->
  <rect x="0" y="180" width="14" height="40" rx="4" fill="#000"/> <!-- RL -->
  <rect x="114" y="180" width="14" height="40" rx="4" fill="#000"/> <!-- RR -->

  <!-- Main Body Paint -->
  <path d="M20,20 Q64,0 108,20 L114,230 Q64,250 14,230 Z" fill="#C62828" stroke="#8E0000" stroke-width="2"/>

  <!-- Roof/Cabin -->
  <rect x="24" y="60" width="80" height="110" rx="10" fill="#212121"/>
  
  <!-- Windshield -->
  <path d="M28,65 L100,65 L96,80 L32,80 Z" fill="#42A5F5" opacity="0.7"/>
  
  <!-- Rear Window -->
  <path d="M30,165 L98,165 L100,150 L28,150 Z" fill="#42A5F5" opacity="0.6"/>

  <!-- Headlights -->
  <path d="M22,20 L32,25 L32,35 L18,35 Z" fill="#FFF9C4"/>
  <path d="M106,20 L96,25 L96,35 L110,35 Z" fill="#FFF9C4"/>

  <!-- Brake Lights -->
  <rect x="18" y="230" width="20" height="8" fill="#FF0000"/>
  <rect x="90" y="230" width="20" height="8" fill="#FF0000"/>
</svg>
